<svg width="1440" height="98" viewBox="0 0 1440 98" fill="none" xmlns="http://www.w3.org/2000/svg">
<g clip-path="url(#clip0_110_90)">
<mask id="path-1-inside-1_110_90" fill="white">
<path fill-rule="evenodd" clip-rule="evenodd" d="M561.373 0H-2C-13.0457 0 -22 8.95431 -22 20V46C-22 57.0457 -13.0457 66 -1.99998 66H501.404C509.748 66 516.929 71.4438 521.934 78.1199C523.076 79.643 524.325 81.1305 525.684 82.5752C534.944 92.4184 547.859 98 561.373 98H600H628.627H813.373H842H880.627C894.141 98 907.056 92.4184 916.316 82.5752C917.675 81.1305 918.924 79.643 920.066 78.1199C925.071 71.4438 932.252 66 940.597 66H1443C1454.05 66 1463 57.0457 1463 46V20C1463 8.95431 1454.05 0 1443 0H880.627H842H813.373H628.627H600H561.373Z"/>
</mask>
<path fill-rule="evenodd" clip-rule="evenodd" d="M561.373 0H-2C-13.0457 0 -22 8.95431 -22 20V46C-22 57.0457 -13.0457 66 -1.99998 66H501.404C509.748 66 516.929 71.4438 521.934 78.1199C523.076 79.643 524.325 81.1305 525.684 82.5752C534.944 92.4184 547.859 98 561.373 98H600H628.627H813.373H842H880.627C894.141 98 907.056 92.4184 916.316 82.5752C917.675 81.1305 918.924 79.643 920.066 78.1199C925.071 71.4438 932.252 66 940.597 66H1443C1454.05 66 1463 57.0457 1463 46V20C1463 8.95431 1454.05 0 1443 0H880.627H842H813.373H628.627H600H561.373Z" fill="#14161B"/>
<path d="M525.684 82.5752L528.598 79.8343L528.598 79.8343L525.684 82.5752ZM916.316 82.5752L913.402 79.8343L913.402 79.8343L916.316 82.5752ZM521.934 78.1199L525.135 75.7204L521.934 78.1199ZM-2 4H561.373V-4H-2V4ZM-18 46V20H-26V46H-18ZM501.404 62H-1.99998V70H501.404V62ZM528.598 79.8343C527.339 78.497 526.186 77.1234 525.135 75.7204L518.734 80.5193C519.966 82.1627 521.311 83.764 522.771 85.316L528.598 79.8343ZM561.373 94C548.962 94 537.102 88.874 528.598 79.8343L522.771 85.316C532.787 95.9627 546.756 102 561.373 102V94ZM600 94H561.373V102H600V94ZM628.627 94H600V102H628.627V94ZM813.373 94H628.627V102H813.373V94ZM842 94H813.373V102H842V94ZM880.627 94H842V102H880.627V94ZM913.402 79.8343C904.898 88.874 893.038 94 880.627 94V102C895.244 102 909.213 95.9627 919.229 85.316L913.402 79.8343ZM916.865 75.7204C915.814 77.1234 914.661 78.497 913.402 79.8343L919.229 85.316C920.689 83.764 922.034 82.1627 923.266 80.5193L916.865 75.7204ZM1443 62H940.597V70H1443V62ZM1459 20V46H1467V20H1459ZM880.627 4H1443V-4H880.627V4ZM842 4H880.627V-4H842V4ZM813.373 4H842V-4H813.373V4ZM628.627 4H813.373V-4H628.627V4ZM600 4H628.627V-4H600V4ZM561.373 4H600V-4H561.373V4ZM-26 46C-26 59.2548 -15.2548 70 -1.99998 70V62C-10.8365 62 -18 54.8365 -18 46H-26ZM1443 70C1456.25 70 1467 59.2548 1467 46H1459C1459 54.8366 1451.84 62 1443 62V70ZM1467 20C1467 6.74517 1456.25 -4 1443 -4V4C1451.84 4 1459 11.1634 1459 20H1467ZM501.404 70C507.947 70 514.086 74.3201 518.734 80.5193L525.135 75.7204C519.772 68.5674 511.548 62 501.404 62V70ZM923.266 80.5193C927.914 74.3201 934.053 70 940.597 70V62C930.452 62 922.228 68.5674 916.865 75.7204L923.266 80.5193ZM-2 -4C-15.2548 -4 -26 6.74517 -26 20H-18C-18 11.1634 -10.8366 4 -2 4V-4Z" fill="url(#paint0_linear_110_90)" mask="url(#path-1-inside-1_110_90)"/>
</g>
<defs>
<linearGradient id="paint0_linear_110_90" x1="-22" y1="48.5243" x2="1463" y2="48.5244" gradientUnits="userSpaceOnUse">
<stop stop-opacity="0"/>
<stop offset="0.25" stop-color="#EF3F4D"/>
<stop offset="0.5" stop-color="#FBCC55"/>
<stop offset="0.75" stop-color="#F58651"/>
<stop offset="1" stop-opacity="0"/>
</linearGradient>
<clipPath id="clip0_110_90">
<rect width="1440" height="98" fill="white"/>
</clipPath>
</defs>
</svg>
